<svg width="24" height="24" viewBox="0 0 24 24" fill="none" xmlns="http://www.w3.org/2000/svg">
<path d="M6.03794 5.47802C6.59394 8.68702 8.54794 10.885 11.9999 12C15.4519 10.885 17.4059 8.68702 17.9619 5.47802C17.9949 5.26357 17.981 5.04452 17.9211 4.83597C17.8612 4.62743 17.7568 4.43436 17.6151 4.27008C17.4733 4.10581 17.2976 3.97424 17.1001 3.88445C16.9026 3.79467 16.6879 3.7488 16.4709 3.75002H7.52894C7.31197 3.7488 7.09732 3.79467 6.89979 3.88445C6.70227 3.97424 6.52657 4.10581 6.38483 4.27008C6.24309 4.43436 6.13867 4.62743 6.07878 4.83597C6.01889 5.04452 6.00496 5.26357 6.03794 5.47802Z" stroke="#BFD0FC" stroke-linecap="round" stroke-linejoin="round"/>
<path d="M3.75 0.75H20.25" stroke="#BFD0FC" stroke-linecap="round" stroke-linejoin="round"/>
<path d="M7.52879 20.25C7.31192 20.2512 7.09736 20.2054 6.89992 20.1156C6.70248 20.0259 6.52684 19.8944 6.38511 19.7303C6.24338 19.5661 6.13894 19.3732 6.07898 19.1647C6.01902 18.9563 6.00496 18.7374 6.03779 18.523C6.59379 15.314 8.54779 13.116 11.9998 12C15.4518 13.116 17.4058 15.314 17.9618 18.523C17.9946 18.7374 17.9806 18.9563 17.9206 19.1647C17.8606 19.3732 17.7562 19.5661 17.6145 19.7303C17.4727 19.8944 17.2971 20.0259 17.0997 20.1156C16.9022 20.2054 16.6877 20.2512 16.4708 20.25H7.52879Z" stroke="#BFD0FC" stroke-linecap="round" stroke-linejoin="round"/>
<path d="M3.75 23.25H20.25" stroke="#BFD0FC" stroke-linecap="round" stroke-linejoin="round"/>
</svg>
